<svg width="42" height="50" viewBox="0 0 42 50" fill="none" xmlns="http://www.w3.org/2000/svg">
<path fill-rule="evenodd" clip-rule="evenodd" d="M5 25C5 19.6957 7.10714 14.6086 10.8579 10.8579C14.6086 7.10714 19.6957 5 25 5C30.3043 5 35.3914 7.10714 39.1421 10.8579C42.8929 14.6086 45 19.6957 45 25C45 30.3043 42.8929 35.3914 39.1421 39.1421C35.3914 42.8929 30.3043 45 25 45C19.6957 45 14.6086 42.8929 10.8579 39.1421C7.10714 35.3914 5 30.3043 5 25ZM26.25 14.375C26.25 13.8777 26.0525 13.4008 25.7008 13.0492C25.3492 12.6975 24.8723 12.5 24.375 12.5C23.8777 12.5 23.4008 12.6975 23.0492 13.0492C22.6975 13.4008 22.5 13.8777 22.5 14.375V25C22.5 25.71 22.9 26.36 23.5375 26.675L29.7875 29.8C30.0088 29.9247 30.2532 30.0031 30.5057 30.0305C30.7583 30.0579 31.0138 30.0337 31.2567 29.9594C31.4996 29.885 31.7249 29.7621 31.9188 29.598C32.1128 29.434 32.2714 29.2322 32.385 29.005C32.4986 28.7778 32.5648 28.5298 32.5797 28.2762C32.5946 28.0226 32.5578 27.7687 32.4715 27.5297C32.3852 27.2908 32.2513 27.0719 32.0779 26.8863C31.9044 26.7007 31.6951 26.5522 31.4625 26.45L26.25 23.8375V14.375Z" fill="black"/>
</svg>
